<svg id="CIPHE_Plus_Name" data-name="CIPHE Plus Name" xmlns="http://www.w3.org/2000/svg" width="143.24" height="44.85" viewBox="0 0 143.24 44.85"><path d="M24.23,35.94a12.09,12.09,0,0,1-4.8-.9,9.44,9.44,0,0,1-3.55-2.6,11.93,11.93,0,0,1-2.21-4.17,18.51,18.51,0,0,1-.78-5.59q0-6.46,3.1-10.13a10.67,10.67,0,0,1,8.59-3.63,12.47,12.47,0,0,1,6.9,2.2V1.06A28.88,28.88,0,0,0,23.84,0C16.14,0,11.51,2,6.9,6.09S0,15.71,0,22.53Q0,33.48,7.35,39.45c4.38,3.55,8.26,5.4,14.67,5.4a33.84,33.84,0,0,0,9.24-1.49L32,33.61A15,15,0,0,1,24.23,35.94Z" fill="#ed1b2f"/><path d="M47.89,44H35.18V.89H47.89Z" fill="#fff"/><path d="M64.37,44H51.65V.89H64q9.21,0,13.67,3.44a13.4,13.4,0,0,1,5.24,11.24q0,7.83-5.58,11.68-3.81,2.59-11,2.59h-2Zm0-23.18.58,0a5.13,5.13,0,0,0,3.69-1.3A4.63,4.63,0,0,0,70,16a5,5,0,0,0-1.34-3.63,4.47,4.47,0,0,0-3.41-1.42h-.89Z" fill="#fff"/><path d="M116.51,44H103.79V26.64H97.73V44H85V.89H97.73V16.32h6.06V.89h12.72Z" fill="#fff"/><path d="M119.61,44V.89h23.63V11.22H132.32v5.49h9.79V27h-9.79v6.61h10.92V44Z" fill="#fff"/></svg>