<?xml version="1.0" encoding="UTF-8" standalone="no"?>
<!DOCTYPE svg PUBLIC "-//W3C//DTD SVG 1.1//EN" "http://www.w3.org/Graphics/SVG/1.1/DTD/svg11.dtd">
<svg width="100%" height="100%" viewBox="0 0 2199 436" version="1.1" xmlns="http://www.w3.org/2000/svg" xmlns:xlink="http://www.w3.org/1999/xlink" xml:space="preserve" xmlns:serif="http://www.serif.com/" style="fill-rule:evenodd;clip-rule:evenodd;stroke-linejoin:round;stroke-miterlimit:2;">
    <g>
        <g id="contractor" transform="matrix(1.73339,0,0,1.73339,-24.062,-938.908)">
            <path d="M1256.15,762.95C1254.68,761.85 1252.8,761.3 1250.5,761.3C1249.57,761.3 1248.65,761.4 1247.76,761.59C1246.86,761.78 1246.06,762.1 1245.36,762.55C1244.66,763 1244.11,763.6 1243.68,764.35C1243.26,765.1 1243.06,766.03 1243.06,767.15C1243.06,768.2 1243.36,769.06 1243.96,769.71C1244.56,770.37 1245.37,770.9 1246.38,771.31C1247.39,771.73 1248.53,772.07 1249.8,772.34C1251.08,772.61 1252.37,772.91 1253.68,773.23C1255,773.55 1256.29,773.93 1257.57,774.36C1258.84,774.79 1259.98,775.37 1260.99,776.11C1261.99,776.84 1262.8,777.77 1263.41,778.89C1264.01,780.01 1264.31,781.41 1264.31,783.11C1264.31,784.93 1263.92,786.49 1263.13,787.78C1262.34,789.07 1261.33,790.13 1260.08,790.94C1258.84,791.76 1257.45,792.35 1255.92,792.71C1254.38,793.08 1252.86,793.26 1251.33,793.26C1249.48,793.26 1247.71,793.02 1246.06,792.54C1244.4,792.06 1242.95,791.34 1241.69,790.36C1240.44,789.39 1239.44,788.14 1238.72,786.62C1237.99,785.1 1237.62,783.3 1237.62,781.23L1241.81,781.23C1241.81,782.67 1242.08,783.91 1242.63,784.94C1243.16,785.98 1243.88,786.83 1244.77,787.5C1245.65,788.17 1246.68,788.67 1247.86,788.99C1249.04,789.31 1250.25,789.47 1251.49,789.47C1252.48,789.47 1253.48,789.38 1254.48,789.18C1255.49,788.99 1256.39,788.66 1257.2,788.2C1258.01,787.74 1258.66,787.11 1259.16,786.31C1259.65,785.51 1259.9,784.49 1259.9,783.24C1259.9,781.99 1259.59,781.1 1258.99,780.36C1258.39,779.62 1257.59,779.02 1256.57,778.56C1255.57,778.1 1254.43,777.72 1253.16,777.43C1251.88,777.14 1250.59,776.85 1249.27,776.54C1247.95,776.24 1246.66,775.88 1245.39,775.49C1244.12,775.09 1242.98,774.56 1241.97,773.91C1240.97,773.26 1240.16,772.41 1239.55,771.37C1238.95,770.33 1238.64,769.03 1238.64,767.46C1238.64,765.74 1238.99,764.24 1239.67,762.98C1240.35,761.72 1241.25,760.68 1242.38,759.86C1243.51,759.05 1244.81,758.44 1246.24,758.04C1247.69,757.64 1249.16,757.44 1250.68,757.44C1252.38,757.44 1253.96,757.65 1255.42,758.06C1256.88,758.48 1258.16,759.13 1259.26,760.03C1260.36,760.92 1261.23,762.05 1261.86,763.41C1262.5,764.77 1262.85,766.39 1262.91,768.28L1258.72,768.28C1258.47,765.82 1257.61,764.04 1256.14,762.93" style="fill:rgb(54,39,131);fill-rule:nonzero;"/>
            <path d="M1222.29,758.27C1225.45,758.27 1227.92,759.07 1229.7,760.67C1231.49,762.27 1232.38,764.46 1232.38,767.24C1232.38,769.32 1231.92,771.14 1231,772.7C1230.09,774.26 1228.63,775.34 1226.61,775.91L1226.61,776C1227.57,776.19 1228.35,776.51 1228.96,776.96C1229.56,777.41 1230.04,777.94 1230.4,778.56C1230.76,779.18 1231.02,779.88 1231.19,780.65C1231.36,781.42 1231.5,782.21 1231.59,783.04C1231.65,783.87 1231.69,784.72 1231.73,785.58C1231.76,786.44 1231.84,787.29 1231.96,788.12C1232.09,788.95 1232.27,789.74 1232.5,790.49C1232.74,791.24 1233.09,791.91 1233.55,792.48L1228.62,792.48C1228.31,792.13 1228.1,791.65 1227.99,791.04C1227.88,790.43 1227.81,789.76 1227.78,789C1227.75,788.25 1227.72,787.44 1227.7,786.58C1227.67,785.72 1227.57,784.87 1227.42,784.04C1227.29,783.21 1227.14,782.42 1226.95,781.67C1226.76,780.92 1226.47,780.26 1226.06,779.71C1225.66,779.15 1225.13,778.7 1224.48,778.37C1223.83,778.04 1222.97,777.87 1221.89,777.87L1211.1,777.87L1211.1,792.49L1206.68,792.49L1206.68,758.27L1222.31,758.27L1222.29,758.27ZM1223.22,773.8C1224.15,773.64 1224.96,773.33 1225.66,772.87C1226.36,772.41 1226.91,771.78 1227.34,771C1227.76,770.22 1227.96,769.2 1227.96,767.96C1227.96,766.24 1227.5,764.83 1226.56,763.74C1225.63,762.66 1224.13,762.11 1222.05,762.11L1211.08,762.11L1211.08,774.04L1220.28,774.04C1221.3,774.04 1222.28,773.96 1223.21,773.8" style="fill:rgb(54,39,131);fill-rule:nonzero;"/>
            <path d="M1169.46,768.65C1170.12,766.49 1171.12,764.58 1172.45,762.92C1173.78,761.26 1175.44,759.93 1177.43,758.94C1179.41,757.95 1181.72,757.45 1184.35,757.45C1186.98,757.45 1189.29,757.95 1191.27,758.94C1193.26,759.93 1194.92,761.26 1196.25,762.92C1197.58,764.58 1198.58,766.49 1199.25,768.65C1199.91,770.81 1200.25,773.05 1200.25,775.38C1200.25,777.71 1199.92,779.96 1199.25,782.11C1198.58,784.27 1197.58,786.18 1196.25,787.84C1194.92,789.5 1193.26,790.82 1191.27,791.79C1189.29,792.76 1186.98,793.25 1184.35,793.25C1181.72,793.25 1179.41,792.76 1177.43,791.79C1175.45,790.82 1173.79,789.5 1172.45,787.84C1171.11,786.18 1170.12,784.27 1169.46,782.11C1168.79,779.95 1168.46,777.71 1168.46,775.38C1168.46,773.05 1168.79,770.8 1169.46,768.65M1173.52,780.49C1173.95,782.17 1174.63,783.68 1175.56,785.02C1176.49,786.36 1177.69,787.44 1179.14,788.25C1180.59,789.07 1182.33,789.47 1184.35,789.47C1186.37,789.47 1188.1,789.06 1189.56,788.25C1191.02,787.44 1192.21,786.36 1193.14,785.02C1194.07,783.68 1194.75,782.17 1195.19,780.49C1195.62,778.81 1195.84,777.11 1195.84,775.39C1195.84,773.67 1195.62,771.96 1195.19,770.29C1194.75,768.61 1194.07,767.1 1193.14,765.76C1192.21,764.42 1191.01,763.34 1189.56,762.53C1188.1,761.71 1186.37,761.31 1184.35,761.31C1182.33,761.31 1180.6,761.72 1179.14,762.53C1177.69,763.34 1176.49,764.42 1175.56,765.76C1174.63,767.1 1173.95,768.61 1173.52,770.29C1173.09,771.97 1172.86,773.67 1172.86,775.39C1172.86,777.11 1173.08,778.82 1173.52,780.49" style="fill:rgb(54,39,131);fill-rule:nonzero;"/>
            <path d="M1139.07,762.11L1139.07,758.27L1165.62,758.27L1165.62,762.11L1154.55,762.11L1154.55,792.5L1150.14,792.5L1150.14,762.11L1139.07,762.11Z" style="fill:rgb(54,39,131);fill-rule:nonzero;"/>
            <path d="M1128.08,763.12C1126.39,761.9 1124.38,761.3 1122.06,761.3C1120.08,761.3 1118.38,761.68 1116.97,762.45C1115.57,763.22 1114.4,764.25 1113.49,765.54C1112.57,766.83 1111.9,768.31 1111.47,769.97C1111.04,771.63 1110.81,773.36 1110.81,775.15C1110.81,777.1 1111.03,778.95 1111.47,780.69C1111.9,782.43 1112.58,783.95 1113.49,785.24C1114.4,786.54 1115.57,787.56 1116.99,788.33C1118.42,789.1 1120.12,789.48 1122.1,789.48C1123.56,789.48 1124.86,789.23 1125.99,788.74C1127.12,788.25 1128.1,787.56 1128.92,786.68C1129.74,785.8 1130.38,784.76 1130.85,783.54C1131.32,782.32 1131.59,781.02 1131.68,779.61L1136.1,779.61C1135.67,783.92 1134.23,787.28 1131.78,789.68C1129.33,792.08 1125.99,793.27 1121.74,793.27C1119.16,793.27 1116.92,792.81 1114.99,791.9C1113.07,790.99 1111.48,789.74 1110.2,788.14C1108.93,786.54 1107.98,784.66 1107.34,782.48C1106.7,780.31 1106.39,777.97 1106.39,775.48C1106.39,772.99 1106.73,770.65 1107.41,768.46C1108.1,766.27 1109.09,764.36 1110.41,762.73C1111.73,761.1 1113.37,759.82 1115.34,758.87C1117.31,757.93 1119.57,757.45 1122.1,757.45C1123.84,757.45 1125.48,757.69 1127.03,758.17C1128.58,758.65 1129.96,759.35 1131.16,760.28C1132.37,761.21 1133.38,762.37 1134.18,763.76C1134.99,765.15 1135.51,766.76 1135.76,768.58L1131.34,768.58C1130.85,766.15 1129.75,764.33 1128.07,763.12" style="fill:rgb(54,39,131);fill-rule:nonzero;"/>
            <path d="M1090.77,758.28L1103.74,792.5L1098.86,792.5L1095.24,782.19L1081.2,782.19L1077.48,792.5L1072.97,792.5L1085.89,758.28L1090.77,758.28ZM1093.84,778.36L1088.3,762.4L1088.22,762.4L1082.59,778.36L1093.84,778.36Z" style="fill:rgb(54,39,131);fill-rule:nonzero;"/>
            <path d="M1059.62,758.27C1062.78,758.27 1065.25,759.07 1067.04,760.67C1068.82,762.27 1069.71,764.46 1069.71,767.24C1069.71,769.32 1069.26,771.14 1068.34,772.7C1067.43,774.26 1065.96,775.34 1063.95,775.91L1063.95,776C1064.9,776.19 1065.69,776.51 1066.29,776.96C1066.9,777.41 1067.38,777.94 1067.74,778.56C1068.1,779.18 1068.36,779.88 1068.53,780.65C1068.7,781.42 1068.83,782.21 1068.92,783.04C1068.99,783.87 1069.03,784.72 1069.07,785.58C1069.1,786.44 1069.17,787.29 1069.3,788.12C1069.43,788.95 1069.6,789.74 1069.84,790.49C1070.07,791.24 1070.42,791.91 1070.89,792.48L1065.96,792.48C1065.65,792.13 1065.44,791.65 1065.33,791.04C1065.22,790.43 1065.15,789.76 1065.12,789C1065.09,788.25 1065.06,787.44 1065.03,786.58C1065,785.72 1064.91,784.87 1064.76,784.04C1064.63,783.21 1064.48,782.42 1064.29,781.67C1064.1,780.92 1063.81,780.26 1063.41,779.71C1063.01,779.15 1062.48,778.7 1061.83,778.37C1061.18,778.04 1060.32,777.87 1059.23,777.87L1048.44,777.87L1048.44,792.49L1044.02,792.49L1044.02,758.27L1059.64,758.27L1059.62,758.27ZM1060.55,773.8C1061.48,773.64 1062.29,773.33 1062.98,772.87C1063.69,772.41 1064.24,771.78 1064.66,771C1065.08,770.22 1065.29,769.2 1065.29,767.96C1065.29,766.24 1064.83,764.83 1063.89,763.74C1062.96,762.66 1061.46,762.11 1059.38,762.11L1048.41,762.11L1048.41,774.04L1057.61,774.04C1058.64,774.04 1059.61,773.96 1060.55,773.8" style="fill:rgb(54,39,131);fill-rule:nonzero;"/>
            <path d="M1012.75,762.11L1012.75,758.27L1039.3,758.27L1039.3,762.11L1028.24,762.11L1028.24,792.5L1023.82,792.5L1023.82,762.11L1012.75,762.11Z" style="fill:rgb(54,39,131);fill-rule:nonzero;"/>
            <path d="M986.35,758.27L1003.83,786.02L1003.92,786.02L1003.92,758.27L1008.11,758.27L1008.11,792.5L1003.28,792.5L985.93,765.03L985.84,765.03L985.84,792.5L981.65,792.5L981.65,758.27L986.35,758.27Z" style="fill:rgb(54,39,131);fill-rule:nonzero;"/>
            <path d="M944.49,768.65C945.15,766.49 946.16,764.58 947.49,762.92C948.82,761.26 950.48,759.93 952.46,758.94C954.44,757.95 956.76,757.45 959.39,757.45C962.02,757.45 964.33,757.95 966.32,758.94C968.3,759.93 969.96,761.26 971.3,762.92C972.63,764.58 973.63,766.49 974.29,768.65C974.96,770.81 975.29,773.05 975.29,775.38C975.29,777.71 974.96,779.96 974.29,782.11C973.63,784.27 972.62,786.18 971.3,787.84C969.97,789.5 968.31,790.82 966.32,791.79C964.34,792.76 962.02,793.25 959.39,793.25C956.76,793.25 954.44,792.76 952.46,791.79C950.48,790.82 948.82,789.5 947.49,787.84C946.15,786.18 945.15,784.27 944.49,782.11C943.83,779.95 943.5,777.71 943.5,775.38C943.5,773.05 943.83,770.8 944.49,768.65M948.56,780.49C948.99,782.17 949.67,783.68 950.61,785.02C951.54,786.36 952.73,787.44 954.18,788.25C955.64,789.07 957.38,789.47 959.39,789.47C961.4,789.47 963.13,789.06 964.6,788.25C966.05,787.44 967.25,786.36 968.18,785.02C969.11,783.68 969.79,782.17 970.22,780.49C970.65,778.81 970.87,777.11 970.87,775.39C970.87,773.67 970.66,771.96 970.22,770.29C969.79,768.61 969.11,767.1 968.18,765.76C967.24,764.42 966.05,763.34 964.6,762.53C963.14,761.71 961.4,761.31 959.39,761.31C957.38,761.31 955.64,761.72 954.18,762.53C952.73,763.34 951.53,764.42 950.61,765.76C949.67,767.1 948.99,768.61 948.56,770.29C948.13,771.97 947.91,773.67 947.91,775.39C947.91,777.11 948.12,778.82 948.56,780.49" style="fill:rgb(54,39,131);fill-rule:nonzero;"/>
            <path d="M930.82,763.12C929.14,761.9 927.13,761.3 924.81,761.3C922.82,761.3 921.13,761.68 919.71,762.45C918.3,763.22 917.14,764.25 916.22,765.54C915.31,766.83 914.64,768.31 914.2,769.97C913.77,771.63 913.55,773.36 913.55,775.15C913.55,777.1 913.76,778.95 914.2,780.69C914.64,782.43 915.31,783.95 916.22,785.24C917.14,786.54 918.3,787.56 919.73,788.33C921.15,789.1 922.86,789.48 924.84,789.48C926.3,789.48 927.59,789.23 928.72,788.74C929.85,788.25 930.83,787.56 931.65,786.68C932.47,785.8 933.11,784.76 933.58,783.54C934.04,782.32 934.32,781.02 934.41,779.61L938.83,779.61C938.4,783.92 936.96,787.28 934.51,789.68C932.06,792.08 928.72,793.27 924.46,793.27C921.89,793.27 919.65,792.81 917.72,791.9C915.8,790.99 914.2,789.74 912.93,788.14C911.66,786.54 910.7,784.66 910.07,782.48C909.43,780.31 909.12,777.97 909.12,775.48C909.12,772.99 909.46,770.65 910.14,768.46C910.82,766.27 911.83,764.36 913.14,762.73C914.45,761.1 916.09,759.82 918.07,758.87C920.04,757.93 922.29,757.45 924.83,757.45C926.57,757.45 928.21,757.69 929.76,758.17C931.31,758.65 932.7,759.35 933.9,760.28C935.11,761.21 936.11,762.37 936.92,763.76C937.73,765.15 938.26,766.76 938.5,768.58L934.09,768.58C933.59,766.15 932.5,764.33 930.81,763.12" style="fill:rgb(54,39,131);fill-rule:nonzero;"/>
        </g>
        <g id="water" transform="matrix(1.73339,0,0,1.73339,-24.062,-938.908)">
            <path d="M879.57,758.27C882.73,758.27 885.2,759.07 886.99,760.67C888.77,762.27 889.66,764.46 889.66,767.24C889.66,769.32 889.2,771.14 888.29,772.7C887.37,774.26 885.91,775.34 883.89,775.91L883.89,776C884.85,776.19 885.63,776.51 886.24,776.96C886.84,777.41 887.33,777.94 887.69,778.56C888.05,779.18 888.31,779.88 888.48,780.65C888.65,781.42 888.78,782.21 888.87,783.04C888.93,783.87 888.98,784.72 889.01,785.58C889.04,786.44 889.12,787.29 889.25,788.12C889.37,788.95 889.55,789.74 889.79,790.49C890.02,791.24 890.37,791.91 890.84,792.48L885.91,792.48C885.6,792.13 885.39,791.65 885.28,791.04C885.18,790.43 885.11,789.76 885.08,789C885.05,788.25 885.01,787.44 884.99,786.58C884.96,785.72 884.86,784.87 884.71,784.04C884.59,783.21 884.43,782.42 884.25,781.67C884.06,780.92 883.77,780.26 883.36,779.71C882.95,779.15 882.42,778.7 881.78,778.37C881.12,778.04 880.26,777.87 879.18,777.87L868.39,777.87L868.39,792.49L863.97,792.49L863.97,758.27L879.59,758.27L879.57,758.27ZM880.49,773.8C881.43,773.64 882.23,773.33 882.93,772.87C883.63,772.41 884.19,771.78 884.61,771C885.03,770.22 885.24,769.2 885.24,767.96C885.24,766.24 884.77,764.83 883.84,763.74C882.91,762.66 881.41,762.11 879.33,762.11L868.36,762.11L868.36,774.04L877.56,774.04C878.58,774.04 879.56,773.96 880.49,773.8" style="fill:rgb(54,39,131);fill-rule:nonzero;"/>
            <path d="M857.44,758.27L857.44,762.11L838.94,762.11L838.94,772.99L856.18,772.99L856.18,776.82L838.94,776.82L838.94,788.66L857.58,788.66L857.58,792.5L834.52,792.5L834.52,758.27L857.44,758.27Z" style="fill:rgb(54,39,131);fill-rule:nonzero;"/>
            <path d="M803.28,762.11L803.28,758.27L829.82,758.27L829.82,762.11L818.76,762.11L818.76,792.5L814.34,792.5L814.34,762.11L803.28,762.11Z" style="fill:rgb(54,39,131);fill-rule:nonzero;"/>
            <path d="M793.84,758.28L806.81,792.5L801.93,792.5L798.31,782.19L784.27,782.19L780.55,792.5L776.04,792.5L788.97,758.28L793.84,758.28ZM796.91,778.36L791.38,762.4L791.29,762.4L785.67,778.36L796.92,778.36L796.91,778.36Z" style="fill:rgb(54,39,131);fill-rule:nonzero;"/>
            <path d="M762.37,792.5L754.79,763.74L754.7,763.74L747.03,792.5L742.42,792.5L733.92,758.28L738.42,758.28L744.93,786.74L745.02,786.74L752.46,758.28L757.25,758.28L764.6,786.74L764.69,786.74L771.43,758.28L775.85,758.28L766.97,792.5L762.37,792.5Z" style="fill:rgb(54,39,131);fill-rule:nonzero;"/>
        </g>
        <g id="approved" transform="matrix(1.73339,0,0,1.73339,-24.062,-938.908)">
            <path d="M700.67,758.28C705.78,758.28 709.72,759.62 712.48,762.31C715.24,764.99 716.62,769.08 716.62,774.58C716.62,777.46 716.31,780 715.69,782.23C715.07,784.45 714.11,786.32 712.81,787.84C711.51,789.36 709.85,790.52 707.83,791.32C705.82,792.12 703.43,792.52 700.67,792.52L689.28,792.52L689.28,758.3L700.67,758.3L700.67,758.28ZM701.05,788.66C701.55,788.66 702.17,788.62 702.91,788.54C703.65,788.46 704.44,788.27 705.28,787.96C706.12,787.66 706.95,787.22 707.77,786.64C708.59,786.07 709.33,785.28 709.98,784.29C710.63,783.3 711.17,782.06 711.58,780.58C712,779.1 712.21,777.3 712.21,775.19C712.21,773.08 712.02,771.32 711.63,769.7C711.24,768.09 710.61,766.71 709.73,765.58C708.84,764.45 707.71,763.58 706.31,762.99C704.92,762.4 703.2,762.1 701.15,762.1L693.71,762.1L693.71,788.65L701.06,788.65L701.05,788.66Z" style="fill:rgb(54,39,131);fill-rule:nonzero;"/>
            <path d="M682.78,758.27L682.78,762.11L664.27,762.11L664.27,772.99L681.52,772.99L681.52,776.82L664.27,776.82L664.27,788.66L682.92,788.66L682.92,792.5L659.86,792.5L659.86,758.27L682.78,758.27Z" style="fill:rgb(54,39,131);fill-rule:nonzero;"/>
            <path d="M638.47,792.5L626.8,758.28L631.54,758.28L641.03,787.94L641.12,787.94L650.7,758.28L655.3,758.28L643.49,792.5L638.47,792.5Z" style="fill:rgb(54,39,131);fill-rule:nonzero;"/>
            <path d="M593.21,768.65C593.88,766.49 594.88,764.58 596.21,762.92C597.54,761.26 599.2,759.93 601.18,758.94C603.16,757.95 605.47,757.45 608.11,757.45C610.75,757.45 613.05,757.95 615.04,758.94C617.02,759.93 618.68,761.26 620.02,762.92C621.35,764.58 622.35,766.49 623.02,768.65C623.69,770.81 624.02,773.05 624.02,775.38C624.02,777.71 623.69,779.96 623.02,782.11C622.35,784.27 621.35,786.18 620.02,787.84C618.69,789.5 617.03,790.82 615.04,791.79C613.06,792.76 610.75,793.25 608.11,793.25C605.47,793.25 603.17,792.76 601.18,791.79C599.2,790.82 597.54,789.5 596.21,787.84C594.88,786.18 593.88,784.27 593.21,782.11C592.54,779.95 592.21,777.71 592.21,775.38C592.21,773.05 592.54,770.8 593.21,768.65M597.28,780.49C597.71,782.17 598.4,783.68 599.33,785.02C600.26,786.36 601.45,787.44 602.91,788.25C604.37,789.07 606.1,789.47 608.12,789.47C610.14,789.47 611.87,789.06 613.33,788.25C614.79,787.44 615.98,786.36 616.91,785.02C617.84,783.68 618.52,782.17 618.96,780.49C619.39,778.81 619.61,777.11 619.61,775.39C619.61,773.67 619.39,771.96 618.96,770.29C618.52,768.61 617.84,767.1 616.91,765.76C615.98,764.42 614.79,763.34 613.33,762.53C611.87,761.71 610.14,761.31 608.12,761.31C606.1,761.31 604.37,761.72 602.91,762.53C601.45,763.34 600.26,764.42 599.33,765.76C598.4,767.1 597.72,768.61 597.28,770.29C596.85,771.97 596.63,773.67 596.63,775.39C596.63,777.11 596.85,778.82 597.28,780.49" style="fill:rgb(54,39,131);fill-rule:nonzero;"/>
            <path d="M576.83,758.27C579.99,758.27 582.46,759.07 584.24,760.67C586.02,762.27 586.92,764.46 586.92,767.24C586.92,769.32 586.46,771.14 585.55,772.7C584.64,774.26 583.17,775.34 581.16,775.91L581.16,776C582.12,776.19 582.9,776.51 583.51,776.96C584.12,777.41 584.59,777.94 584.95,778.56C585.3,779.18 585.57,779.88 585.74,780.65C585.91,781.42 586.04,782.21 586.14,783.04C586.2,783.87 586.25,784.72 586.28,785.58C586.31,786.44 586.39,787.29 586.51,788.12C586.63,788.95 586.81,789.74 587.05,790.49C587.28,791.24 587.63,791.91 588.09,792.48L583.16,792.48C582.85,792.13 582.64,791.65 582.53,791.04C582.42,790.43 582.35,789.76 582.32,789C582.29,788.25 582.26,787.44 582.23,786.58C582.2,785.72 582.11,784.87 581.95,784.04C581.83,783.21 581.67,782.42 581.49,781.67C581.3,780.92 581.01,780.26 580.61,779.71C580.21,779.15 579.68,778.7 579.03,778.37C578.38,778.04 577.51,777.87 576.43,777.87L565.64,777.87L565.64,792.49L561.22,792.49L561.22,758.27L576.84,758.27L576.83,758.27ZM577.76,773.8C578.69,773.64 579.5,773.33 580.2,772.87C580.9,772.41 581.46,771.78 581.88,771C582.3,770.22 582.51,769.2 582.51,767.96C582.51,766.24 582.04,764.83 581.11,763.74C580.18,762.66 578.68,762.11 576.6,762.11L565.63,762.11L565.63,774.04L574.83,774.04C575.85,774.04 576.83,773.96 577.76,773.8" style="fill:rgb(54,39,131);fill-rule:nonzero;"/>
            <path d="M544.61,758.28C547.96,758.28 550.49,759.17 552.21,760.94C553.93,762.71 554.79,765.2 554.79,768.39C554.79,771.58 553.93,774.08 552.21,775.87C550.49,777.66 547.96,778.54 544.61,778.51L534.48,778.51L534.48,792.5L530.06,792.5L530.06,758.28L544.61,758.28ZM543.12,774.67C545.63,774.7 547.47,774.17 548.63,773.09C549.79,772 550.37,770.44 550.37,768.39C550.37,766.34 549.79,764.79 548.63,763.72C547.47,762.65 545.63,762.12 543.12,762.12L534.47,762.12L534.47,774.68L543.12,774.68L543.12,774.67Z" style="fill:rgb(54,39,131);fill-rule:nonzero;"/>
            <path d="M513.46,758.28C516.81,758.28 519.34,759.17 521.06,760.94C522.78,762.71 523.64,765.2 523.64,768.39C523.64,771.58 522.78,774.08 521.06,775.87C519.34,777.66 516.81,778.54 513.46,778.51L503.33,778.51L503.33,792.5L498.91,792.5L498.91,758.28L513.46,758.28ZM511.97,774.67C514.48,774.7 516.32,774.17 517.48,773.09C518.64,772 519.22,770.44 519.22,768.39C519.22,766.34 518.64,764.79 517.48,763.72C516.32,762.65 514.48,762.12 511.97,762.12L503.32,762.12L503.32,774.68L511.97,774.68L511.97,774.67Z" style="fill:rgb(54,39,131);fill-rule:nonzero;"/>
            <path d="M481.66,758.28L494.63,792.5L489.75,792.5L486.12,782.19L472.08,782.19L468.36,792.5L463.85,792.5L476.77,758.28L481.66,758.28ZM484.73,778.36L479.2,762.4L479.11,762.4L473.49,778.36L484.74,778.36L484.73,778.36Z" style="fill:rgb(54,39,131);fill-rule:nonzero;"/>
        </g>
        <g id="local" transform="matrix(1.73339,0,0,1.73339,-24.062,-938.908)">
            <path d="M431.36,758.27L431.36,788.66L448.93,788.66L448.93,792.5L426.94,792.5L426.94,758.27L431.36,758.27Z" style="fill:rgb(54,39,131);fill-rule:nonzero;"/>
            <path d="M409.7,758.28L422.67,792.5L417.79,792.5L414.16,782.19L400.12,782.19L396.4,792.5L391.89,792.5L404.81,758.28L409.7,758.28ZM412.76,778.36L407.23,762.4L407.14,762.4L401.51,778.36L412.76,778.36Z" style="fill:rgb(54,39,131);fill-rule:nonzero;"/>
            <path d="M381.27,763.12C379.58,761.9 377.57,761.3 375.25,761.3C373.27,761.3 371.57,761.68 370.16,762.45C368.75,763.22 367.59,764.25 366.67,765.54C365.75,766.83 365.08,768.31 364.65,769.97C364.22,771.63 364,773.36 364,775.15C364,777.1 364.22,778.95 364.65,780.69C365.08,782.43 365.76,783.95 366.67,785.24C367.58,786.54 368.75,787.56 370.18,788.33C371.6,789.1 373.31,789.48 375.29,789.48C376.75,789.48 378.04,789.23 379.17,788.74C380.3,788.25 381.28,787.56 382.1,786.68C382.92,785.8 383.56,784.76 384.03,783.54C384.5,782.32 384.77,781.02 384.87,779.61L389.29,779.61C388.85,783.92 387.41,787.28 384.97,789.68C382.52,792.08 379.18,793.27 374.93,793.27C372.36,793.27 370.11,792.81 368.19,791.9C366.27,790.99 364.67,789.74 363.4,788.14C362.13,786.54 361.17,784.66 360.54,782.48C359.9,780.31 359.59,777.97 359.59,775.48C359.59,772.99 359.93,770.65 360.61,768.46C361.29,766.27 362.29,764.36 363.61,762.73C364.93,761.1 366.57,759.82 368.54,758.87C370.51,757.93 372.76,757.45 375.3,757.45C377.04,757.45 378.68,757.69 380.23,758.17C381.78,758.65 383.16,759.35 384.37,760.28C385.58,761.21 386.59,762.37 387.39,763.76C388.2,765.15 388.72,766.76 388.97,768.58L384.55,768.58C384.05,766.15 382.96,764.33 381.27,763.12" style="fill:rgb(54,39,131);fill-rule:nonzero;"/>
            <path d="M323.99,768.65C324.66,766.49 325.66,764.58 326.99,762.92C328.32,761.26 329.98,759.93 331.96,758.94C333.94,757.95 336.25,757.45 338.89,757.45C341.53,757.45 343.83,757.95 345.82,758.94C347.8,759.93 349.46,761.26 350.8,762.92C352.13,764.58 353.13,766.49 353.8,768.65C354.47,770.81 354.8,773.05 354.8,775.38C354.8,777.71 354.47,779.96 353.8,782.11C353.13,784.27 352.13,786.18 350.8,787.84C349.47,789.5 347.81,790.82 345.82,791.79C343.84,792.76 341.53,793.25 338.89,793.25C336.25,793.25 333.95,792.76 331.96,791.79C329.98,790.82 328.32,789.5 326.99,787.84C325.66,786.18 324.66,784.27 323.99,782.11C323.32,779.95 322.99,777.71 322.99,775.38C322.99,773.05 323.32,770.8 323.99,768.65M328.06,780.49C328.49,782.17 329.17,783.68 330.1,785.02C331.03,786.36 332.22,787.44 333.68,788.25C335.14,789.07 336.87,789.47 338.89,789.47C340.91,789.47 342.64,789.06 344.1,788.25C345.56,787.44 346.75,786.36 347.68,785.02C348.61,783.68 349.29,782.17 349.72,780.49C350.15,778.81 350.37,777.11 350.37,775.39C350.37,773.67 350.15,771.96 349.72,770.29C349.28,768.61 348.6,767.1 347.68,765.76C346.75,764.42 345.56,763.34 344.1,762.53C342.64,761.71 340.91,761.31 338.89,761.31C336.87,761.31 335.14,761.72 333.68,762.53C332.22,763.34 331.03,764.42 330.1,765.76C329.17,767.1 328.49,768.61 328.06,770.29C327.62,771.97 327.41,773.67 327.41,775.39C327.41,777.11 327.63,778.82 328.06,780.49" style="fill:rgb(54,39,131);fill-rule:nonzero;"/>
            <path d="M302.4,758.27L302.4,788.66L319.97,788.66L319.97,792.5L297.98,792.5L297.98,758.27L302.4,758.27Z" style="fill:rgb(54,39,131);fill-rule:nonzero;"/>
        </g>
        <g transform="matrix(1.73339,0,0,1.73339,-24.062,-938.908)">
            <rect x="283.81" y="744.1" width="993.78" height="62.57" style="fill:none;"/>
        </g>
        <g transform="matrix(1.73339,0,0,1.73339,-24.062,-938.908)">
            <path d="M1197.21,672.44L1197.21,674.02C1197.21,688.37 1199.18,696.04 1223.36,696.04C1234.76,696.04 1254.43,695.26 1265.43,694.07L1265.43,717.08C1256.58,719.24 1240.86,721.99 1221.78,721.99C1180.49,721.99 1163.19,707.24 1163.19,668.71L1163.19,658.49C1163.19,621.13 1183.05,604.03 1217.27,604.03C1259.14,604.03 1270.74,631.16 1270.74,660.85L1270.74,672.45L1197.21,672.45L1197.21,672.44ZM1237.32,651.99C1237.32,639.6 1234.76,628.79 1217.27,628.79C1199.78,628.79 1197.41,639.8 1197.41,651.99L1197.41,653.57L1237.32,653.57L1237.32,651.99Z" style="fill:rgb(54,39,131);fill-rule:nonzero;"/>
        </g>
        <g transform="matrix(1.73339,0,0,1.73339,-24.062,-938.908)">
            <path d="M1130.57,631.74L1130.57,693.28L1139.61,694.26L1139.61,719.23L1087.31,719.23L1087.31,694.26L1096.35,693.28L1096.35,631.74L1077.68,629.97L1077.68,606.77L1096.35,606.77L1096.35,597.92C1096.35,574.92 1105.39,562.92 1130.37,562.92C1140.59,562.92 1150.22,564.3 1156.91,566.07L1156.91,585.93C1150.62,585.54 1145.9,585.34 1141.18,585.34C1131.35,585.34 1130.56,588.68 1130.56,598.32L1130.56,606.78L1156.71,606.78L1156.71,631.75L1130.56,631.75L1130.57,631.74Z" style="fill:rgb(54,39,131);fill-rule:nonzero;"/>
        </g>
        <g transform="matrix(1.73339,0,0,1.73339,-24.062,-938.908)">
            <path d="M1037.8,719.24L1037.8,711.97C1030.32,716.89 1017.35,722 1002.4,722C981.36,722 969.57,711.38 969.57,689.95L969.57,685.43C969.57,655.55 992.38,652.2 1024.23,652.2L1034.65,652.2L1034.65,646.1C1034.65,632.54 1031.7,629.78 1014,629.78C1009.87,629.78 1006.13,629.97 1001.81,630.17L999.84,638.82L977.82,638.82L977.82,610.7C984.11,608.53 1002.2,604.01 1021.08,604.01C1056.08,604.01 1069.06,615.22 1069.06,646.08L1069.06,693.27L1077.91,694.25L1077.91,719.22L1037.8,719.22L1037.8,719.24ZM1036.03,669.89L1024.62,669.89C1008.89,669.89 1002.21,671.66 1002.21,684.24L1002.21,688.76C1002.21,697.41 1007.52,699.77 1014.99,699.77C1023.84,699.77 1032.49,696.62 1036.03,694.66L1036.03,669.89Z" style="fill:rgb(54,39,131);fill-rule:nonzero;"/>
        </g>
        <g transform="matrix(1.73339,0,0,1.73339,-24.062,-938.908)">
            <path d="M904.1,722.58C883.46,722.58 863.01,720.22 853.58,717.86L853.58,683.26L875.79,683.26L877.75,695.06C885.23,695.45 892.5,695.45 899.58,695.45C915.31,695.45 922.19,690.73 922.19,679.92C922.19,671.86 918.45,668.32 905.08,662.42L883.85,652.98C863.2,643.74 849.83,633.32 849.83,610.51C849.83,581.41 869.89,569.81 906.85,569.81C926.12,569.81 945.58,572.96 954.04,574.92L954.04,608.35L931.83,608.35L929.66,597.14C922.98,596.75 915.11,596.55 908.82,596.55C893.69,596.55 886.01,599.7 886.01,609.53C886.01,616.8 889.55,619.95 902.73,625.85L923.17,634.9C946.96,645.32 958.76,654.96 958.76,677.96C958.76,707.45 938.11,722.59 904.1,722.59" style="fill:rgb(54,39,131);fill-rule:nonzero;"/>
        </g>
        <g transform="matrix(1.73339,0,0,1.73339,-24.062,-938.908)">
            <path d="M806.25,641.34L806.25,696.56L815.12,697.55L815.12,722.59L762.87,722.59L762.87,697.55L771.94,696.56L771.94,635.82L762.87,634.84L762.87,609.8L803.88,609.8L803.88,619.26C814.92,609 828.73,607.03 840.95,607.03L840.95,636.42C828.53,636.42 815.12,638.59 806.24,641.35" style="fill:rgb(54,39,131);fill-rule:nonzero;"/>
        </g>
        <g transform="matrix(1.73339,0,0,1.73339,-24.062,-938.908)">
            <path d="M682.97,675.65L682.97,677.22C682.97,691.62 684.95,699.31 709.2,699.31C720.64,699.31 740.36,698.51 751.4,697.33L751.4,720.4C742.53,722.57 726.75,725.33 707.63,725.33C666.22,725.33 648.86,710.54 648.86,671.89L648.86,661.64C648.86,624.18 668.78,607.02 703.09,607.02C745.1,607.02 756.73,634.23 756.73,664.01L756.73,675.65L682.97,675.65ZM723.21,655.15C723.21,642.72 720.64,631.88 703.09,631.88C685.54,631.88 683.17,642.92 683.17,655.15L683.17,656.72L723.21,656.72L723.21,655.15Z" style="fill:rgb(54,39,131);fill-rule:nonzero;"/>
        </g>
        <g transform="matrix(1.73339,0,0,1.73339,-24.062,-938.908)">
            <path d="M617.36,725.34C593.5,725.34 583.05,716.07 583.05,690.83L583.05,634.83L563.52,633.05L563.52,609.78L583.05,609.78L583.05,582.56L617.36,582.56L617.36,609.78L642.6,609.78L642.6,634.82L617.56,634.82L617.56,690.43C617.56,699.5 618.16,701.47 626.83,701.47C631.95,701.47 635.71,701.08 642.4,700.68L642.4,722.37C639.44,723.16 628.8,725.33 617.36,725.33" style="fill:rgb(54,39,131);fill-rule:nonzero;"/>
        </g>
        <g transform="matrix(1.73339,0,0,1.73339,-24.062,-938.908)">
            <path d="M523.46,722.58L523.46,715.29C515.96,720.22 502.95,725.34 487.96,725.34C466.86,725.34 455.03,714.69 455.03,693.2L455.03,688.67C455.03,658.69 477.9,655.34 509.85,655.34L520.3,655.34L520.3,649.23C520.3,635.62 517.35,632.86 499.6,632.86C495.46,632.86 491.71,633.05 487.38,633.25L485.4,641.93L463.31,641.93L463.31,613.72C469.62,611.55 487.77,607.02 506.69,607.02C541.79,607.02 554.81,618.26 554.81,649.22L554.81,696.55L563.69,697.54L563.69,722.58L523.46,722.58ZM521.68,673.08L510.24,673.08C494.46,673.08 487.76,674.86 487.76,687.48L487.76,692.02C487.76,700.7 493.09,703.07 500.58,703.07C509.46,703.07 518.13,699.91 521.68,697.93L521.68,673.08Z" style="fill:rgb(54,39,131);fill-rule:nonzero;"/>
        </g>
        <g transform="matrix(1.73339,0,0,1.73339,-24.062,-938.908)">
            <path d="M459.3,576.07L459.3,601.5L449.63,602.49L429.12,722.58L384.55,722.58L367.39,658.49C365.62,651.78 364.43,642.91 363.45,636.6L362.85,636.6C361.67,642.91 360.68,651.78 358.91,658.49L341.94,722.58L296.98,722.58L276.48,602.49L266.81,601.5L266.81,576.07L322.22,576.07L322.22,601.5L312.95,602.49L321.04,654.55C322.62,664.41 323.41,673.67 324.39,682.35L325.18,682.35C327.15,674.07 327.55,665.2 329.91,656.72L343.91,607.02L382.56,607.02L396.57,657.11C398.93,665.6 399.53,674.66 401.1,682.35L401.89,682.35C402.68,673.87 403.67,664.6 405.25,654.55L413.33,602.49L404.06,601.5L404.06,576.07L459.3,576.07Z" style="fill:rgb(54,39,131);fill-rule:nonzero;"/>
        </g>
        <g transform="matrix(1.73339,0,0,1.73339,-24.062,-938.908)">
            <path d="M1282.18,590.24C1282.18,598.16 1275.96,604.39 1267.86,604.39C1259.76,604.39 1253.46,598.17 1253.46,590.24C1253.46,582.31 1259.85,576.26 1267.86,576.26C1275.87,576.26 1282.18,582.48 1282.18,590.24M1257.05,590.24C1257.05,596.46 1261.65,601.4 1267.96,601.4C1274.27,601.4 1278.61,596.46 1278.61,590.32C1278.61,584.18 1274.1,579.07 1267.88,579.07C1261.66,579.07 1257.06,584.1 1257.06,590.23M1265.66,597.57L1262.42,597.57L1262.42,583.6C1263.7,583.34 1265.49,583.17 1267.79,583.17C1270.43,583.17 1271.63,583.6 1272.65,584.19C1273.42,584.79 1274.01,585.89 1274.01,587.26C1274.01,588.79 1272.82,589.99 1271.12,590.5L1271.12,590.67C1272.48,591.18 1273.25,592.2 1273.67,594.08C1274.1,596.21 1274.36,597.06 1274.7,597.57L1271.2,597.57C1270.78,597.06 1270.52,595.78 1270.09,594.16C1269.84,592.63 1268.98,591.94 1267.19,591.94L1265.66,591.94L1265.66,597.57ZM1265.73,589.64L1267.27,589.64C1269.06,589.64 1270.51,589.04 1270.51,587.6C1270.51,586.32 1269.57,585.47 1267.52,585.47C1266.67,585.47 1266.07,585.55 1265.73,585.64L1265.73,589.64Z" style="fill:rgb(54,39,131);fill-rule:nonzero;"/>
        </g>
        <g transform="matrix(1.73339,0,0,1.73339,-24.062,-938.908)">
            <rect x="266.83" y="548.76" width="1029.53" height="173.83" style="fill:none;"/>
        </g>
        <g transform="matrix(1.73339,0,0,1.73339,-24.062,-938.908)">
            <path d="M198.95,607.78C241.14,649.97 241.14,718.64 198.95,760.84C156.74,803.04 88.08,803.04 45.87,760.84C25.41,740.37 14.15,713.16 14.17,684.22L14.17,576.06L122.36,576.06C151.27,576.03 178.48,587.3 198.95,607.77M181.46,743.36C214.02,710.8 214.03,657.81 181.46,625.25C165.67,609.46 144.68,600.77 122.37,600.79L38.89,600.79L38.89,684.23C38.87,706.57 47.56,727.57 63.35,743.36C95.91,775.93 148.89,775.92 181.46,743.36" style="fill:rgb(164,187,226);fill-rule:nonzero;"/>
        </g>
        <g transform="matrix(1.73339,0,0,1.73339,-24.062,-938.908)">
            <path d="M181.46,743.36C148.9,775.93 95.92,775.93 63.35,743.36C47.56,727.57 38.87,706.57 38.89,684.23L38.89,600.79L122.37,600.79C144.68,600.77 165.67,609.46 181.46,625.25C214.02,657.81 214.02,710.8 181.46,743.36" style="fill:white;fill-rule:nonzero;"/>
        </g>
        <g transform="matrix(1.73339,0,0,1.73339,-24.062,-938.908)">
            <path d="M164.77,641.47C152.99,629.69 137.55,623.81 122.12,623.82L61.9,623.82L61.9,684.03C61.9,699.46 67.78,714.9 79.56,726.68C103.09,750.21 141.24,750.21 164.76,726.68C188.29,703.15 188.3,665 164.76,641.47" style="fill:rgb(54,39,131);fill-rule:nonzero;"/>
        </g>
        <g transform="matrix(-6.63641e-16,1.73339,-1.73339,-6.63641e-16,1374.21,35.0849)">
            <rect x="0" y="561.9" width="244.77" height="244.77" style="fill:none;"/>
        </g>
    </g>
</svg>
