<?xml version="1.0" encoding="UTF-8"?>
<svg id="b" data-name="Layer_2" xmlns="http://www.w3.org/2000/svg" width="197.27mm" height="47.05mm" viewBox="0 0 559.18 133.36">
  <defs>
    <style>
      .e {
        fill: #26292f;
      }

      .f {
        fill: #fff;
      }

      .g {
        fill: #e30c13;
      }
    </style>
  </defs>
  <g id="c" data-name="Layer_1">
    <g>
      <g id="d" data-name="Polyroof">
        <g>
          <path class="e" d="M12.49,48.06v19.49H0V1.32c10.31,0,20.91-.09,31.22-.09,32.54,0,32.64,46.55,0,46.83H12.49ZM12.49,36.61h18.73c15.99,0,15.89-23.46,0-23.46H12.49v23.46Z"/>
          <path class="g" d="M133.11,34.81c-.19,17.12-10.69,34.25-33.96,34.25s-34.06-16.75-34.06-34.15C65.08,14,80.22,0,99.43,0c22.61.19,33.87,17.6,33.68,34.81ZM99.14,57.61c15.61,0,21.48-11.73,21.66-22.61.19-11.07-6.15-23.37-21.38-23.65-14.1,0-22.42,10.6-22.04,23.75.28,10.88,6.15,22.52,21.76,22.52Z"/>
          <path class="e" d="M163,1.32v54.68h34.06v11.54h-46.55V1.32h12.49Z"/>
          <path class="e" d="M227.42,28.67L245.02,1.32h15.04v.57l-26.39,38.31v27.34h-12.49v-27.34L195.73,1.89v-.57h14.85l16.84,27.34Z"/>
          <path class="e" d="M332.62,67.55h-14.29l-19.2-22.14h-12.68v22.14h-12.49V1.23c10.5,0,21,.09,31.5.09,15.61.09,23.84,10.5,23.84,21.95,0,9.08-4.16,18.26-16.75,20.81l20.06,22.61v.85ZM286.45,12.96v21.19h19.02c7.95,0,11.35-5.3,11.35-10.6s-3.5-10.6-11.35-10.6h-19.02Z"/>
          <path class="e" d="M412.65,34.81c-.19,17.12-10.69,34.25-33.96,34.25s-34.06-16.75-34.06-34.15c0-20.91,15.14-34.91,34.34-34.91,22.61.19,33.87,17.6,33.68,34.81ZM378.68,57.61c15.61,0,21.48-11.73,21.66-22.61.19-11.07-6.15-23.37-21.38-23.65-14.1,0-22.42,10.6-22.04,23.75.28,10.88,6.15,22.52,21.76,22.52Z"/>
          <path class="e" d="M494.19,34.81c-.19,17.12-10.69,34.25-33.96,34.25s-34.06-16.75-34.06-34.15c0-20.91,15.14-34.91,34.34-34.91,22.61.19,33.87,17.6,33.68,34.81ZM460.23,57.61c15.61,0,21.47-11.73,21.66-22.61.19-11.07-6.15-23.37-21.38-23.65-14.1,0-22.42,10.6-22.04,23.75.28,10.88,6.15,22.52,21.76,22.52Z"/>
          <path class="e" d="M511.59,67.55V1.42h47.59v12.01h-35.1v18.07h33.21v11.54h-33.21v24.5h-12.49Z"/>
        </g>
      </g>
      <g>
        <rect class="g" y="83.36" width="559.18" height="50"/>
        <g>
          <path class="f" d="M39.1,116h-9.39l-1.38,3.45h-6.3l9.42-21h6l9.39,21h-6.36l-1.38-3.45ZM34.42,104.33l-2.7,6.69h5.37l-2.67-6.69Z"/>
          <path class="f" d="M60.46,113.78v5.67h-5.94v-21h10.2c5.64,0,8.43,3.54,8.43,7.65s-2.82,7.62-8.43,7.68h-4.26ZM60.46,108.77h4.26c1.65,0,2.49-1.2,2.49-2.58s-.87-2.64-2.49-2.64h-4.26v5.22Z"/>
          <path class="f" d="M87.73,113.78v5.67h-5.94v-21h10.2c5.64,0,8.43,3.54,8.43,7.65s-2.82,7.62-8.43,7.68h-4.26ZM87.73,108.77h4.26c1.65,0,2.49-1.2,2.49-2.58s-.87-2.64-2.49-2.64h-4.26v5.22Z"/>
          <path class="f" d="M128.5,119.45h-6.54l-4.89-6.81h-2.07v6.81h-5.94v-21h10.26c5.37,0,8.16,3.45,8.16,7.23,0,2.58-.9,4.77-4.44,6.33l5.46,7.08v.36ZM115,103.19v5.04h4.38c1.56,0,2.25-1.17,2.25-2.43s-.75-2.61-2.31-2.61h-4.32Z"/>
          <path class="f" d="M147.49,119.96c-6.87,0-11.67-3.99-11.67-11.01s4.8-11.01,11.67-11.01,11.67,4.02,11.67,11.01-4.77,11.01-11.67,11.01ZM147.49,103.01c-3.39,0-5.73,2.46-5.73,5.94s2.37,5.94,5.73,5.94,5.73-2.46,5.73-5.94-2.25-5.94-5.73-5.94Z"/>
          <path class="f" d="M179.65,119.54h-5.79l-8.73-21.09h6.57l2.4,6.3,2.64,7.77,2.67-7.77,2.4-6.3h6.57l-8.73,21.09Z"/>
          <path class="f" d="M212.92,119.45h-16.8v-21h16.38v4.98h-10.53v3h9.93v4.83h-9.93v3.18h10.95v5.01Z"/>
          <path class="f" d="M231.28,98.45c7.41,0,10.98,4.56,10.98,10.35s-3.45,10.65-10.98,10.65h-9v-21h9ZM228.16,114.44h3.12c3.78,0,5.1-2.82,5.1-5.7s-1.47-5.34-5.1-5.34h-3.12v11.04Z"/>
          <path class="f" d="M283,116.71c-2.37,2.34-5.25,3.27-8.43,3.27-8.25,0-11.46-5.19-11.49-10.89-.03-5.4,3.6-11.13,11.49-11.13,3.03,0,5.76,1.05,8.13,3.36l-3.66,3.6c-1.5-1.44-3.06-1.83-4.47-1.83-4.05,0-5.64,3.3-5.61,6.03.03,2.73,1.47,5.82,5.61,5.82,1.41,0,3.45-.6,4.95-2.13l3.48,3.9Z"/>
          <path class="f" d="M301.33,119.96c-6.87,0-11.67-3.99-11.67-11.01s4.8-11.01,11.67-11.01,11.67,4.02,11.67,11.01-4.77,11.01-11.67,11.01ZM301.33,103.01c-3.39,0-5.73,2.46-5.73,5.94s2.37,5.94,5.73,5.94,5.73-2.46,5.73-5.94-2.25-5.94-5.73-5.94Z"/>
          <path class="f" d="M336.01,109.94c-.15-2.52-.15-3.48-.18-4.29v-7.2h5.97v21h-5.04l-8.76-11.31.09,4.59v6.72h-6v-21h5.04l8.88,11.49Z"/>
          <path class="f" d="M356.5,103.34h-6.12v-4.89h18.18v4.89h-6.15v16.11h-5.91v-16.11Z"/>
          <path class="f" d="M396.57,119.45h-6.54l-4.89-6.81h-2.07v6.81h-5.94v-21h10.26c5.37,0,8.16,3.45,8.16,7.23,0,2.58-.9,4.77-4.44,6.33l5.46,7.08v.36ZM383.07,103.19v5.04h4.38c1.56,0,2.25-1.17,2.25-2.43s-.75-2.61-2.31-2.61h-4.32Z"/>
          <path class="f" d="M419.73,116h-9.39l-1.38,3.45h-6.3l9.42-21h6l9.39,21h-6.36l-1.38-3.45ZM415.05,104.33l-2.7,6.69h5.37l-2.67-6.69Z"/>
          <path class="f" d="M453.24,116.71c-2.37,2.34-5.25,3.27-8.43,3.27-8.25,0-11.46-5.19-11.49-10.89-.03-5.4,3.6-11.13,11.49-11.13,3.03,0,5.76,1.05,8.13,3.36l-3.66,3.6c-1.5-1.44-3.06-1.83-4.47-1.83-4.05,0-5.64,3.3-5.61,6.03.03,2.73,1.47,5.82,5.61,5.82,1.41,0,3.45-.6,4.95-2.13l3.48,3.9Z"/>
          <path class="f" d="M466.11,103.34h-6.12v-4.89h18.18v4.89h-6.15v16.11h-5.91v-16.11Z"/>
          <path class="f" d="M496.95,119.96c-6.87,0-11.67-3.99-11.67-11.01s4.8-11.01,11.67-11.01,11.67,4.02,11.67,11.01-4.77,11.01-11.67,11.01ZM496.95,103.01c-3.39,0-5.73,2.46-5.73,5.94s2.37,5.94,5.73,5.94,5.73-2.46,5.73-5.94-2.25-5.94-5.73-5.94Z"/>
          <path class="f" d="M537.15,119.45h-6.54l-4.89-6.81h-2.07v6.81h-5.94v-21h10.26c5.37,0,8.16,3.45,8.16,7.23,0,2.58-.9,4.77-4.44,6.33l5.46,7.08v.36ZM523.65,103.19v5.04h4.38c1.56,0,2.25-1.17,2.25-2.43s-.75-2.61-2.31-2.61h-4.32Z"/>
        </g>
      </g>
    </g>
  </g>
</svg>